<svg xmlns="http://www.w3.org/2000/svg" height="24" width="24"><path fill="white" d="M19.725 15.5 17.5 13.275q.175-.45.263-.925.087-.475.087-1.175h2.975q0 1.15-.263 2.3-.262 1.15-.837 2.025Zm-3.5-3.5L8.2 3.975V4.1q.325-1.175 1.413-2.05 1.087-.875 2.512-.875 1.75 0 2.975 1.212 1.225 1.213 1.225 2.938v5.95q0 .225-.037.437-.038.213-.063.288Zm-5.6 10.85v-3.125Q7.475 19.3 5.45 16.85t-2.025-5.675H6.45q0 2.375 1.663 4.025 1.662 1.65 4.012 1.65 1.15 0 2.163-.425 1.012-.425 1.787-1.15l2.175 2.175q-.925.9-2.087 1.488-1.163.587-2.538.787v3.125Zm9.025-.35L1.125 3.975 2.95 2.15 21.5 20.675Z"/></svg>